<?xml version="1.0" encoding="UTF-8"?><svg id="_레이어_2" xmlns="http://www.w3.org/2000/svg" viewBox="0 0 412.42 412.42"><defs><style>.cls-1{fill:#e60012;}</style></defs><g id="_레이어_1-2"><circle cx="206.21" cy="206.21" r="206.21"/><path d="M34.9,185.49c-.71,5.88-1.13,11.86-1.26,17.9,22.27-14.3,45.49-25.72,45.49-25.72-14.56-.07-33.13,4.59-44.23,7.82Z"/><g><path class="cls-1" d="M127.11,154.6c-21.55,.7-61.54,5-91.52,25.69-3.61,2.49-7.07,5.22-10.34,8.21,0,0,3.78-1.31,9.64-3.01,11.1-3.23,29.67-7.89,44.23-7.82,0,0-23.22,11.42-45.49,25.72-.03,1.28-.05,2.55-.05,3.83,0,7.19,.44,14.27,1.26,21.23,28.85-38.28,73.71-64.21,92.26-73.85Z"/><path class="cls-1" d="M316.16,304.46c-13.24,9.59-32.06,2.21-26.71-14.19,0,0-8.39,6.35-16.59-1.14-8.2-7.49-5.32-14.28-5.32-14.28,0,0-4.76,5.93-15.82-1.2-4.18-2.69-4.92-3.16-6.61-8.41-5.2-16.2,.4-27.23,11.47-36.03,14.05-11.62,27.38-10.43,32.98-10.03,18.18,1.3,21.3,16.88,21.3,16.88,49.54-20.18,37.78,30.33,37.78,30.33,25.69-9.17,21.51-58.49,21.51-58.49-63.73,1.75-69.01-33.33-69.01-33.33h0c-73.34-32.35-98.93-136.88-98.93-136.88-10.09,33.49,8.45,101.01,8.45,101.01-41.28-21.1-66.05-63.3-66.05-63.3-2.69,20.6,29.6,66.99,31.13,69.18-1.05-1.46-16.46-21.08-81.61-15.27,0,0,43.43,8.91,47.96,23.52-1.19,.34-2.36,.68-3.53,1.02-45.03,20.97-82.6,57.7-102.36,83.99,8.94,52.17,40.31,96.68,83.84,123.22-29.33-58.5,4.94-109.29,21.47-121.26,15.22-11.02,28.12-12.32,34.24-10.75-8.32-18.53-31.75-29.17-31.75-29.17,45.98,15.71,39.57,45.39,39.57,45.39,0,0-4.35,14.14-5.8,13.79-.09,.17-.14,.26-.14,.26,105.64,26.71,92.52,74.54,92.52,74.54,37.61-6.42,46.18-29.67,46.18-29.67m-22.54-100.14c-4.43,.24-20.05-7.97-25.11-12.39-5.9-5.16-15.37-31.65-15.37-31.65,0,0,14.68,12.21,25.98,21.53,9.88,8.15,16.96,13.82,18.1,17.98l-3.6,4.53Z"/></g></g></svg>