<?xml version="1.0" encoding="UTF-8" standalone="no"?>
<!-- Created with Inkscape (http://www.inkscape.org/) -->

<svg
   width="119.2866"
   height="108.72864"
   id="svg2"
   version="1.1"
   inkscape:version="1.2.2 (b0a8486541, 2022-12-01)"
   sodipodi:docname="octoprint-tentacle.svg"
   xmlns:inkscape="http://www.inkscape.org/namespaces/inkscape"
   xmlns:sodipodi="http://sodipodi.sourceforge.net/DTD/sodipodi-0.dtd"
   xmlns="http://www.w3.org/2000/svg"
   xmlns:svg="http://www.w3.org/2000/svg"
   xmlns:rdf="http://www.w3.org/1999/02/22-rdf-syntax-ns#"
   xmlns:cc="http://creativecommons.org/ns#"
   xmlns:dc="http://purl.org/dc/elements/1.1/">
  <defs
     id="defs4">
    <clipPath
       clipPathUnits="userSpaceOnUse"
       id="clipPath2999">
      <path
         d="M 0,600 H 800 V 0 H 0 Z"
         id="path3001" />
    </clipPath>
    <clipPath
       clipPathUnits="userSpaceOnUse"
       id="clipPath3179">
      <path
         d="M 351,309.913 H 484 V 175.812 H 351 Z"
         id="path3181" />
    </clipPath>
    <clipPath
       clipPathUnits="userSpaceOnUse"
       id="clipPath3195">
      <path
         d="m 361.6,295.312 h 19.5 v -19 h -19.5 z"
         id="path3197" />
    </clipPath>
    <clipPath
       clipPathUnits="userSpaceOnUse"
       id="clipPath3211">
      <path
         d="m 351.7,260.413 h 16 v -15 h -16 z"
         id="path3213" />
    </clipPath>
    <clipPath
       clipPathUnits="userSpaceOnUse"
       id="clipPath3227">
      <path
         d="m 344.1,254.212 h 8.3 v -3.9 h -8.3 z"
         id="path3229" />
    </clipPath>
    <clipPath
       clipPathUnits="userSpaceOnUse"
       id="clipPath3243">
      <path
         d="m 340.9,226.913 h 44.9 v -51 h -44.9 z"
         id="path3245" />
    </clipPath>
    <clipPath
       clipPathUnits="userSpaceOnUse"
       id="clipPath3259">
      <path
         d="m 351.7,230.012 h 63.7 v -48.3 h -63.7 z"
         id="path3261" />
    </clipPath>
    <clipPath
       clipPathUnits="userSpaceOnUse"
       id="clipPath3299">
      <path
         d="m 385.8,184.512 h 53.4 v -9.275 h -53.4 z"
         id="path3301" />
    </clipPath>
    <clipPath
       clipPathUnits="userSpaceOnUse"
       id="clipPath3323">
      <path
         d="m 426.9,185.212 h 18 v -3.6 h -18 z"
         id="path3325" />
    </clipPath>
  </defs>
  <sodipodi:namedview
     id="base"
     pagecolor="#ffffff"
     bordercolor="#666666"
     borderopacity="1.0"
     inkscape:pageopacity="0.0"
     inkscape:pageshadow="2"
     inkscape:zoom="0.98994949"
     inkscape:cx="73.741136"
     inkscape:cy="-90.913729"
     inkscape:document-units="px"
     inkscape:current-layer="g2997"
     showgrid="false"
     borderlayer="false"
     inkscape:window-width="3072"
     inkscape:window-height="1630"
     inkscape:window-x="0"
     inkscape:window-y="0"
     inkscape:window-maximized="1"
     inkscape:showpageshadow="2"
     inkscape:pagecheckerboard="0"
     inkscape:deskcolor="#d1d1d1" />
  <metadata
     id="metadata7">
    <rdf:RDF>
      <cc:Work
         rdf:about="">
        <dc:format>image/svg+xml</dc:format>
        <dc:type
           rdf:resource="http://purl.org/dc/dcmitype/StillImage" />
      </cc:Work>
    </rdf:RDF>
  </metadata>
  <g
     inkscape:label="Layer 1"
     inkscape:groupmode="layer"
     id="layer1"
     transform="translate(-242.53139,-547.66593)">
    <g
       clip-path="url(#clipPath2999)"
       id="g2997"
       transform="matrix(0.72275231,-1.0198672,-1.0198672,-0.72275231,326.4038,1224.3601)">
      <g
         id="g4632"
         transform="translate(-169.63313,-42.957391)">
        <path
           id="path3017"
           transform="matrix(0.46256148,-0.652715,-0.652715,-0.46256148,648.17639,779.39047)"
           d="m 384.4375,343.625 c -15.99755,0.30664 -30.52222,6.12188 -43.6875,17.78125 -8.14057,6.94712 -13.84608,14.98947 -17.125,24.15625 -2.84209,13.30651 -3.04201,26.33484 -0.65625,38.75 1.42265,7.86377 4.4336,17.15087 9.0625,28.03125 h 32.0625 c -2.23008,-6.5513 -4.39213,-11.64423 -6.4375,-15.375 -8.76436,-16.16947 -10.72333,-31.96741 -5.78125,-47.15625 1.79887,-4.70023 4.24569,-9.24781 7.28125,-13.53125 1.08413,-1.5298 2.49815,-3.12606 4.0625,-4.46875 2.04057,-2.23086 6.6777,-5.0753 14.03125,-8.75 2.88617,-1.47839 5.92925,-2.52099 9.3125,-3.1875 0.4208,-0.16141 3.13198,-0.53808 7.96875,-1.09375 3.16643,-0.36054 7.46794,0.0782 12.9375,1.65625 5.19331,1.53547 9.05886,3.20482 11.8125,5.15625 3.56954,2.52963 6.54008,5.24284 9.09375,8.125 0.67134,0.78218 1.15917,1.40686 1.65625,2.21875 0.90503,1.10099 2.17671,2.76831 3.8125,5 0.91788,0.65048 1.5374,1.2717 1.65625,1.96875 0.33567,0.39109 0.53933,0.54641 0.875,0.9375 0.83275,1.20297 1.67548,2.40055 2.40625,3.53125 0.59907,0.88416 1.04394,1.96113 1.46875,2.875 0.5999,-2.7922 0.49448,-6.54185 -0.65625,-11.1875 -1.37157,-5.41497 -2.97273,-9.15501 -4.8125,-11.53125 -3.8538,-4.72276 -6.14616,-7.58151 -7.09375,-8.40625 -0.23368,-0.31881 -2.36627,-1.83752 -6.34375,-4.65625 -3.67152,-2.60191 -7.53322,-4.72184 -11.375,-6.21875 -7.539,-3.1978 -16.23194,-4.7759 -25.53125,-4.625 z m -30.21875,99.9375 c 0.20397,0.14455 0.34683,0.40148 0.40625,0.75 -0.10199,-0.0723 -0.22375,-0.14494 -0.5,-0.1875 0.14455,-0.20397 0.12346,-0.38824 0.0937,-0.5625 z"
           style="fill:#13c100;fill-opacity:1;fill-rule:nonzero;stroke:none"
           inkscape:connector-curvature="0" />
        <path
           id="path3101"
           transform="matrix(0.46256148,-0.652715,-0.652715,-0.46256148,648.17639,779.39047)"
           d="m 397.125,358.65625 c -0.93277,-0.0147 -1.80214,0.0349 -2.59375,0.125 -4.83677,0.55567 -7.54795,0.93234 -7.96875,1.09375 -3.38325,0.66651 -6.42633,1.70911 -9.3125,3.1875 -7.35355,3.6747 -11.99068,6.51914 -14.03125,8.75 -1.56435,1.34269 -2.97837,2.93895 -4.0625,4.46875 -3.03556,4.28344 -5.48238,8.83102 -7.28125,13.53125 -4.94208,15.18884 -2.98311,30.98678 5.78125,47.15625 2.04537,3.73077 4.20742,8.8237 6.4375,15.375 h 32.375 c -1.17829,-3.4936 -2.92961,-7.46935 -5.40625,-11.9375 -1.87349,-3.62578 -4.0443,-7.45858 -6.5,-11.34375 -0.10199,-0.0723 -0.0312,-0.15625 -0.0312,-0.15625 -0.39509,-0.73961 -0.74984,-1.31789 -1.1875,-1.78125 -0.23368,-0.31881 -0.39132,-0.55619 -0.625,-0.875 l -1.375,-1.9375 c -0.52679,-0.98615 -1.06542,-1.96936 -1.5625,-2.78125 -1.86948,-2.5505 -3.30033,-4.62469 -4.46875,-6.21875 -0.99416,-1.62377 -1.98282,-3.261 -2.875,-4.8125 -8.48894,-12.45054 -7.74709,-23.23497 2.1875,-32.28125 2.8396,-2.27743 6.15377,-4.38436 10.1875,-5.96875 2.42281,-1.04073 4.99629,-1.81603 7.40625,-2.40625 17.61732,-2.37609 33.1565,3.5878 46.5625,17.53125 -0.73077,-1.1307 -1.5735,-2.35953 -2.40625,-3.5625 -0.33567,-0.39109 -0.53933,-0.51516 -0.875,-0.90625 -0.11885,-0.69705 -0.73837,-1.31827 -1.65625,-1.96875 -1.63579,-2.23169 -2.90747,-3.89901 -3.8125,-5 -0.49708,-0.81189 -0.98491,-1.43657 -1.65625,-2.21875 -2.55367,-2.88216 -5.52421,-5.59537 -9.09375,-8.125 -2.75364,-1.95143 -6.61919,-3.62078 -11.8125,-5.15625 -4.10217,-1.18353 -7.54545,-1.73719 -10.34375,-1.78125 z"
           style="fill:#169300;fill-opacity:1;fill-rule:nonzero;stroke:none"
           inkscape:connector-curvature="0" />
      </g>
    </g>
  </g>
</svg>
