<?xml version="1.0" encoding="UTF-8" standalone="no"?>
<!-- Created with Inkscape (http://www.inkscape.org/) -->

<svg
   xmlns:dc="http://purl.org/dc/elements/1.1/"
   xmlns:cc="http://creativecommons.org/ns#"
   xmlns:rdf="http://www.w3.org/1999/02/22-rdf-syntax-ns#"
   xmlns:svg="http://www.w3.org/2000/svg"
   xmlns="http://www.w3.org/2000/svg"
   xmlns:sodipodi="http://sodipodi.sourceforge.net/DTD/sodipodi-0.dtd"
   xmlns:inkscape="http://www.inkscape.org/namespaces/inkscape"
   width="16"
   height="16"
   id="svg4693"
   version="1.1"
   inkscape:version="0.48.4 r9939"
   sodipodi:docname="octoprint-favicon-apple.svg">
  <defs
     id="defs4695" />
  <sodipodi:namedview
     id="base"
     pagecolor="#ffffff"
     bordercolor="#666666"
     borderopacity="1.0"
     inkscape:pageopacity="0.0"
     inkscape:pageshadow="2"
     inkscape:zoom="31.678384"
     inkscape:cx="11.852657"
     inkscape:cy="8.0632297"
     inkscape:document-units="px"
     inkscape:current-layer="layer1"
     showgrid="false"
     inkscape:window-width="1920"
     inkscape:window-height="1017"
     inkscape:window-x="1912"
     inkscape:window-y="760"
     inkscape:window-maximized="1" />
  <metadata
     id="metadata4698">
    <rdf:RDF>
      <cc:Work
         rdf:about="">
        <dc:format>image/svg+xml</dc:format>
        <dc:type
           rdf:resource="http://purl.org/dc/dcmitype/StillImage" />
        <dc:title></dc:title>
      </cc:Work>
    </rdf:RDF>
  </metadata>
  <g
     inkscape:label="Layer 1"
     inkscape:groupmode="layer"
     id="layer1"
     transform="translate(0,-1036.3622)">
    <g
       id="g5703"
       transform="matrix(0.10034568,0,0,0.10034568,39.437469,937.21807)">
      <path
         sodipodi:nodetypes="ccccccccscccccsccccccccccscc"
         id="path3017-7-8"
         d="m -308.59572,996.23676 c -20.97839,0.40212 -40.02533,8.02794 -57.28963,23.31744 -10.67515,9.1101 -18.15707,19.6565 -22.45689,31.6773 -3.72697,17.4496 -3.98914,34.5343 -0.86056,50.8149 1.86559,10.3122 5.81399,22.4908 11.88411,36.7588 l 42.04519,0 c -2.92442,-8.5911 -5.75962,-15.2697 -8.44183,-20.1621 -11.49314,-21.2038 -14.06204,-41.9204 -7.58125,-61.8383 2.35895,-6.1637 5.56759,-12.1271 9.54827,-17.7442 1.42168,-2.0062 3.27596,-4.0994 5.32737,-5.8601 2.6759,-2.9255 8.7568,-6.6555 18.39989,-11.4744 3.78478,-1.9386 7.77533,-3.3059 12.21194,-4.1799 0.55184,-0.2116 4.10714,-0.7056 10.44984,-1.4343 4.1523,-0.4728 9.79308,0.1026 16.9656,2.1719 6.81026,2.0136 11.87935,4.2027 15.49033,6.7617 4.68092,3.3172 8.57634,6.8752 11.9251,10.6547 0.88036,1.0257 1.52007,1.8449 2.17192,2.9096 1.18682,1.4438 2.85444,3.6302 4.99953,6.5567 1.20366,0.8531 2.01606,1.6677 2.17192,2.5818 0.44018,0.5128 0.70724,0.7165 1.14742,1.2293 1.09204,1.5776 2.19715,3.148 3.15545,4.6308 0.78559,1.1594 1.36898,2.5717 1.92605,3.7701 0.78668,-3.6616 0.64843,-8.5787 -0.86057,-14.6708 -1.79862,-7.1009 -3.89829,-12.0054 -6.31088,-15.1215 -5.05369,-6.1932 -8.05977,-9.942 -9.30239,-11.0235 -0.30645,-0.4181 -3.10302,-2.4096 -8.31888,-6.106 -4.81465,-3.412 -9.87869,-6.192 -14.91662,-8.1549 -9.88628,-4.19347 -21.28578,-6.26291 -33.48043,-6.06504 z"
         style="fill:#000000;fill-opacity:1;fill-rule:nonzero;stroke:#000000;stroke-width:3.02224946;stroke-miterlimit:4;stroke-opacity:1;stroke-dasharray:none"
         inkscape:connector-curvature="0" />
      <path
         id="path3101-4-0"
         d="m -291.95796,1015.948 c -1.22318,-0.019 -2.36323,0.046 -3.40131,0.1639 -6.3427,0.7287 -9.898,1.2227 -10.44984,1.4343 -4.43661,0.874 -8.42716,2.2413 -12.21194,4.1799 -9.64309,4.8189 -15.72399,8.5489 -18.39989,11.4744 -2.05141,1.7607 -3.90569,3.854 -5.32737,5.8601 -3.98068,5.6171 -7.18932,11.5805 -9.54827,17.7442 -6.48079,19.9179 -3.91189,40.6345 7.58125,61.8384 2.68221,4.8923 5.51741,11.5709 8.44183,20.162 l 42.45497,0 c -1.54516,-4.5813 -3.84174,-9.795 -7.08948,-15.6543 -2.4568,-4.7546 -5.30351,-9.7808 -8.52378,-14.8756 -0.13376,-0.095 -0.0408,-0.2049 -0.0408,-0.2049 -0.51809,-0.9699 -0.98329,-1.7282 -1.55722,-2.3359 -0.30645,-0.418 -0.51315,-0.7293 -0.81959,-1.1474 l -1.80311,-2.5407 c -0.6908,-1.2932 -1.39714,-2.5826 -2.04899,-3.6472 -2.45154,-3.3446 -4.32789,-6.0646 -5.86009,-8.155 -1.30369,-2.1293 -2.60018,-4.2763 -3.77014,-6.3109 -11.13199,-16.327 -10.15916,-30.4692 2.86858,-42.332 3.72371,-2.9865 8.06976,-5.7494 13.35938,-7.8271 3.17716,-1.3648 6.55189,-2.3815 9.71221,-3.1555 23.10248,-3.1159 43.47978,4.7049 61.05976,22.9896 -0.9583,-1.4827 -2.06342,-3.0941 -3.15544,-4.6716 -0.44017,-0.5129 -0.70723,-0.6756 -1.14743,-1.1885 -0.15587,-0.914 -0.96826,-1.7287 -2.17193,-2.5817 -2.14509,-2.9265 -3.81271,-5.113 -4.99952,-6.5567 -0.65185,-1.0647 -1.29157,-1.8839 -2.17193,-2.9096 -3.34876,-3.7795 -7.24418,-7.3375 -11.9251,-10.6547 -3.61099,-2.559 -8.68008,-4.7481 -15.49033,-6.7617 -5.37938,-1.552 -9.89472,-2.278 -13.56427,-2.3358 z"
         style="fill:none;stroke:#000000;stroke-width:3.02224946;stroke-miterlimit:4;stroke-opacity:1;stroke-dasharray:none"
         inkscape:connector-curvature="0" />
    </g>
  </g>
</svg>
